<svg width="91" height="76" viewBox="0 0 91 76" fill="none" xmlns="http://www.w3.org/2000/svg">
<g filter="url(#filter0_d_1_22)">
<path d="M54.3536 24.1709V51.324C54.3536 53.07 52.8815 54.4948 51.0309 54.4948H25.1008C23.2502 54.4948 21.7781 53.07 21.7781 51.324V24.1709C21.7781 22.4249 23.2502 21 25.1008 21H51.0309C52.8815 21.0201 54.3536 22.445 54.3536 24.1709Z" stroke="#FF7551" stroke-width="2" stroke-miterlimit="10" stroke-linecap="round"/>
<path d="M55.9099 25.0539C55.4052 25.0539 54.8794 25.074 54.3747 25.1342V31.5963C54.8584 31.4558 55.3841 31.4157 55.9099 31.4157C59.5901 31.4157 62.5554 34.2454 62.5554 37.7574C62.5554 37.9782 62.5554 38.1789 62.5344 38.3796V38.4197C62.5133 38.6204 62.4713 38.8211 62.4082 39.0218V39.0418C62.3661 39.2425 62.3241 39.4432 62.2399 39.6439C62.1979 39.8045 62.1558 39.9249 62.0717 40.0854C62.0507 40.1456 62.0296 40.2058 62.0086 40.266C61.9665 40.3865 61.9245 40.4868 61.8404 40.5871C61.7983 40.7076 61.7562 40.7678 61.6932 40.848C61.609 41.0086 61.5039 41.1691 61.3987 41.3096C61.3356 41.43 61.2095 41.5505 61.1253 41.6909C60.9571 41.8916 60.7678 42.0722 60.6206 42.2328C59.4009 43.3968 57.7395 44.0992 55.9099 44.0992C55.3631 44.0992 54.8584 44.039 54.3747 43.9186V50.3406C54.8794 50.4008 55.4052 50.4209 55.9099 50.4209C59.5901 50.4209 62.9129 49.016 65.3103 46.7081C66.3198 45.7448 67.182 44.641 67.8129 43.3968C68.6962 41.6709 69.2219 39.7643 69.2219 37.6972C69.2219 30.7534 63.2494 25.0539 55.9099 25.0539Z" stroke="#FF7551" stroke-width="2" stroke-miterlimit="10" stroke-linecap="round"/>
<path d="M55.9099 31.4157C55.3631 31.4157 54.8584 31.4558 54.3747 31.5963V34.9478C54.8374 34.7271 55.3631 34.5866 55.9099 34.5866C57.7395 34.5866 59.2326 35.9914 59.2326 37.7575C59.2326 38.2792 59.0854 38.7609 58.8751 39.1823C58.3073 40.2259 57.2138 40.9283 55.9099 40.9283C55.3421 40.9283 54.8374 40.7878 54.3747 40.5671V43.9386C54.8584 44.0591 55.3841 44.1193 55.9099 44.1193C57.7395 44.1193 59.4009 43.3968 60.6206 42.2529C60.7889 42.0923 60.9781 41.9117 61.1253 41.711C61.2095 41.5705 61.3356 41.4501 61.3987 41.3297C61.5249 41.1692 61.609 41.0086 61.6932 40.8681C61.7352 40.7878 61.7773 40.7076 61.8404 40.6072C61.9035 40.527 61.9665 40.4065 62.0086 40.2861C62.0296 40.2259 62.0507 40.1657 62.0717 40.1055C62.1348 39.945 62.1979 39.8245 62.2399 39.664C62.303 39.4633 62.3661 39.2626 62.4082 39.0619V39.0218C62.4502 38.8211 62.4923 38.6204 62.5344 38.4197V38.3796C62.5554 38.1789 62.5554 37.9782 62.5554 37.7575C62.5554 34.2454 59.5691 31.4157 55.9099 31.4157Z" stroke="#FF7551" stroke-width="2" stroke-miterlimit="10" stroke-linecap="round"/>
<path d="M69.2009 37.7574C69.2009 39.8045 68.6962 41.7311 67.8129 43.4369L61.8614 40.5871C61.9245 40.4868 61.9665 40.3664 62.0086 40.266C62.0296 40.2058 62.0717 40.1657 62.0927 40.1055C62.1558 39.965 62.2189 39.8045 62.261 39.664C62.3241 39.4633 62.3661 39.2626 62.4292 39.0619V39.0218C62.4713 38.8412 62.5133 38.6204 62.5343 38.4197V38.3796C62.5554 38.1789 62.5764 37.9581 62.5764 37.7574H69.2009V37.7574Z" stroke="#FF7551" stroke-width="2" stroke-miterlimit="10" stroke-linecap="round"/>
<g filter="url(#filter1_d_1_22)">
<path d="M37.7819 27.3016C37.7819 26.8199 38.1815 26.4386 38.6862 26.4386C42.5137 26.4386 45.6051 29.3887 45.6051 33.0413C45.6051 33.5229 45.2055 33.9042 44.7008 33.9042C44.1961 33.9042 43.7965 33.5229 43.7965 33.0413C43.7965 30.633 41.988 28.6462 39.5905 28.2248V42.7947C39.5905 42.8549 39.5905 42.9151 39.5695 42.9753C39.5905 43.1158 39.5905 43.2362 39.5905 43.3767C39.5905 45.7649 37.5716 47.6915 35.0691 47.6915C32.5665 47.6915 30.5476 45.7649 30.5476 43.3767C30.5476 40.9885 32.5665 39.082 35.0691 39.082C36.0785 39.082 37.0249 39.4031 37.7819 39.9449V27.3016Z" fill="#FF7551"/>
</g>
</g>
<defs>
<filter id="filter0_d_1_22" x="0.778076" y="0" width="89.4438" height="75.4948" filterUnits="userSpaceOnUse" color-interpolation-filters="sRGB">
<feFlood flood-opacity="0" result="BackgroundImageFix"/>
<feColorMatrix in="SourceAlpha" type="matrix" values="0 0 0 0 0 0 0 0 0 0 0 0 0 0 0 0 0 0 127 0" result="hardAlpha"/>
<feOffset/>
<feGaussianBlur stdDeviation="10"/>
<feComposite in2="hardAlpha" operator="out"/>
<feColorMatrix type="matrix" values="0 0 0 0 1 0 0 0 0 0.458824 0 0 0 0 0.317647 0 0 0 0.77 0"/>
<feBlend mode="normal" in2="BackgroundImageFix" result="effect1_dropShadow_1_22"/>
<feBlend mode="normal" in="SourceGraphic" in2="effect1_dropShadow_1_22" result="shape"/>
</filter>
<filter id="filter1_d_1_22" x="26.5476" y="22.4386" width="23.0575" height="29.2529" filterUnits="userSpaceOnUse" color-interpolation-filters="sRGB">
<feFlood flood-opacity="0" result="BackgroundImageFix"/>
<feColorMatrix in="SourceAlpha" type="matrix" values="0 0 0 0 0 0 0 0 0 0 0 0 0 0 0 0 0 0 127 0" result="hardAlpha"/>
<feOffset/>
<feGaussianBlur stdDeviation="2"/>
<feComposite in2="hardAlpha" operator="out"/>
<feColorMatrix type="matrix" values="0 0 0 0 1 0 0 0 0 0.458824 0 0 0 0 0.317647 0 0 0 0.77 0"/>
<feBlend mode="normal" in2="BackgroundImageFix" result="effect1_dropShadow_1_22"/>
<feBlend mode="normal" in="SourceGraphic" in2="effect1_dropShadow_1_22" result="shape"/>
</filter>
</defs>
</svg>
